<svg width="323" height="67" viewBox="0 0 323 67" fill="none" xmlns="http://www.w3.org/2000/svg">
<rect x="0.5" y="0.5" width="322" height="66" rx="11.637" stroke="#E1E1E1"/>
<path d="M24.628 25.021C23.924 24.251 23.572 23.2757 23.572 22.095C23.572 20.9143 23.924 19.9427 24.628 19.18C25.3393 18.41 26.2743 18.025 27.433 18.025C28.2983 18.025 29.0463 18.245 29.677 18.685C30.315 19.125 30.7587 19.7263 31.008 20.489L30.227 20.753C30.0437 20.1443 29.7027 19.664 29.204 19.312C28.7053 18.96 28.115 18.784 27.433 18.784C26.5237 18.784 25.7903 19.0883 25.233 19.697C24.683 20.3057 24.408 21.105 24.408 22.095C24.408 23.085 24.683 23.8843 25.233 24.493C25.7903 25.1017 26.5237 25.406 27.433 25.406C28.115 25.406 28.7053 25.23 29.204 24.878C29.7027 24.526 30.0437 24.0457 30.227 23.437L31.008 23.701C30.7587 24.4637 30.315 25.065 29.677 25.505C29.0463 25.945 28.2983 26.165 27.433 26.165C26.2743 26.165 25.3393 25.7837 24.628 25.021ZM34.9818 26.132C34.1311 26.132 33.4418 25.846 32.9138 25.274C32.3931 24.6947 32.1328 24.0053 32.1328 23.206C32.1328 22.3993 32.3931 21.71 32.9138 21.138C33.4418 20.5587 34.1311 20.269 34.9818 20.269C35.8398 20.269 36.5291 20.5587 37.0498 21.138C37.5778 21.71 37.8418 22.3993 37.8418 23.206C37.8418 24.0053 37.5778 24.6947 37.0498 25.274C36.5291 25.846 35.8398 26.132 34.9818 26.132ZM32.9248 23.206C32.9248 23.844 33.1154 24.3757 33.4968 24.801C33.8781 25.219 34.3731 25.428 34.9818 25.428C35.5978 25.428 36.0964 25.219 36.4778 24.801C36.8591 24.3757 37.0498 23.844 37.0498 23.206C37.0498 22.5607 36.8591 22.029 36.4778 21.611C36.0964 21.1857 35.5978 20.973 34.9818 20.973C34.3658 20.973 33.8671 21.1857 33.4858 21.611C33.1118 22.029 32.9248 22.5607 32.9248 23.206ZM40.1208 26H39.3398V17.75H40.1208V26ZM44.4778 26.132C43.6272 26.132 42.9378 25.846 42.4098 25.274C41.8892 24.6947 41.6288 24.0053 41.6288 23.206C41.6288 22.3993 41.8892 21.71 42.4098 21.138C42.9378 20.5587 43.6272 20.269 44.4778 20.269C45.3358 20.269 46.0252 20.5587 46.5458 21.138C47.0738 21.71 47.3378 22.3993 47.3378 23.206C47.3378 24.0053 47.0738 24.6947 46.5458 25.274C46.0252 25.846 45.3358 26.132 44.4778 26.132ZM42.4208 23.206C42.4208 23.844 42.6115 24.3757 42.9928 24.801C43.3742 25.219 43.8692 25.428 44.4778 25.428C45.0938 25.428 45.5925 25.219 45.9738 24.801C46.3552 24.3757 46.5458 23.844 46.5458 23.206C46.5458 22.5607 46.3552 22.029 45.9738 21.611C45.5925 21.1857 45.0938 20.973 44.4778 20.973C43.8618 20.973 43.3632 21.1857 42.9818 21.611C42.6078 22.029 42.4208 22.5607 42.4208 23.206ZM51.5639 20.357V21.094C51.4759 21.0867 51.3842 21.083 51.2889 21.083C50.7902 21.083 50.3869 21.2333 50.0789 21.534C49.7709 21.8273 49.6169 22.2563 49.6169 22.821V26H48.8359V20.401H49.5839V21.27C49.7159 21.028 49.9322 20.8153 50.2329 20.632C50.5336 20.4413 50.9149 20.346 51.3769 20.346L51.5639 20.357ZM56.5703 24.262L57.2523 24.559C57.0469 25.0357 56.7279 25.417 56.2953 25.703C55.8699 25.989 55.3676 26.132 54.7883 26.132C53.9376 26.132 53.2629 25.8497 52.7643 25.285C52.2729 24.713 52.0273 24.0163 52.0273 23.195C52.0273 22.3883 52.2803 21.699 52.7863 21.127C53.2996 20.555 53.9633 20.269 54.7773 20.269C55.5913 20.269 56.2439 20.544 56.7353 21.094C57.2266 21.6367 57.4723 22.315 57.4723 23.129L57.4613 23.426H52.8083C52.8449 24.0127 53.0429 24.493 53.4023 24.867C53.7616 25.241 54.2273 25.428 54.7993 25.428C55.2173 25.428 55.5803 25.3253 55.8883 25.12C56.1963 24.9073 56.4236 24.6213 56.5703 24.262ZM54.7773 20.973C54.2493 20.973 53.8093 21.1453 53.4573 21.49C53.1053 21.8273 52.8963 22.26 52.8303 22.788H56.6913C56.6399 22.238 56.4419 21.798 56.0973 21.468C55.7599 21.138 55.3199 20.973 54.7773 20.973ZM63.2778 21.413V17.75H64.0588V26H63.3108V24.966C62.8928 25.7433 62.1851 26.132 61.1878 26.132C60.3665 26.132 59.7211 25.8497 59.2518 25.285C58.7825 24.713 58.5478 24.02 58.5478 23.206C58.5478 22.3847 58.7825 21.6917 59.2518 21.127C59.7211 20.555 60.3665 20.269 61.1878 20.269C62.1558 20.269 62.8525 20.6503 63.2778 21.413ZM63.3108 23.206C63.3108 22.5607 63.1348 22.029 62.7828 21.611C62.4308 21.1857 61.9505 20.973 61.3418 20.973C60.7331 20.973 60.2455 21.1857 59.8788 21.611C59.5195 22.0363 59.3398 22.568 59.3398 23.206C59.3398 23.8367 59.5195 24.3647 59.8788 24.79C60.2455 25.2153 60.7331 25.428 61.3418 25.428C61.9505 25.428 62.4308 25.2153 62.7828 24.79C63.1348 24.3647 63.3108 23.8367 63.3108 23.206ZM70.8069 25.098L72.7429 20.401H73.5569L71.1919 26H70.3999L68.0569 20.401H68.9039L70.8069 25.098ZM78.5703 24.262L79.2523 24.559C79.0469 25.0357 78.7279 25.417 78.2953 25.703C77.8699 25.989 77.3676 26.132 76.7883 26.132C75.9376 26.132 75.2629 25.8497 74.7643 25.285C74.2729 24.713 74.0273 24.0163 74.0273 23.195C74.0273 22.3883 74.2803 21.699 74.7863 21.127C75.2996 20.555 75.9633 20.269 76.7773 20.269C77.5913 20.269 78.2439 20.544 78.7353 21.094C79.2266 21.6367 79.4723 22.315 79.4723 23.129L79.4613 23.426H74.8083C74.8449 24.0127 75.0429 24.493 75.4023 24.867C75.7616 25.241 76.2273 25.428 76.7993 25.428C77.2173 25.428 77.5803 25.3253 77.8883 25.12C78.1963 24.9073 78.4236 24.6213 78.5703 24.262ZM76.7773 20.973C76.2493 20.973 75.8093 21.1453 75.4573 21.49C75.1053 21.8273 74.8963 22.26 74.8303 22.788H78.6913C78.6399 22.238 78.4419 21.798 78.0973 21.468C77.7599 21.138 77.3199 20.973 76.7773 20.973ZM83.6938 20.357V21.094C83.6058 21.0867 83.5141 21.083 83.4188 21.083C82.9201 21.083 82.5168 21.2333 82.2088 21.534C81.9008 21.8273 81.7468 22.2563 81.7468 22.821V26H80.9658V20.401H81.7138V21.27C81.8458 21.028 82.0621 20.8153 82.3628 20.632C82.6635 20.4413 83.0448 20.346 83.5068 20.346L83.6938 20.357ZM84.2625 24.416L85.0435 24.273C85.0802 24.6397 85.2232 24.9293 85.4725 25.142C85.7292 25.3473 86.0885 25.45 86.5505 25.45C87.0125 25.45 87.3719 25.3657 87.6285 25.197C87.8925 25.021 88.0245 24.79 88.0245 24.504C88.0245 24.2913 87.9585 24.119 87.8265 23.987C87.7019 23.8477 87.5369 23.7487 87.3315 23.69C87.1335 23.6313 86.9135 23.5837 86.6715 23.547C86.4295 23.503 86.1839 23.4517 85.9345 23.393C85.6925 23.3343 85.4689 23.2573 85.2635 23.162C85.0655 23.0593 84.9005 22.9053 84.7685 22.7C84.6439 22.4873 84.5815 22.227 84.5815 21.919C84.5815 21.4643 84.7685 21.0757 85.1425 20.753C85.5165 20.4303 86.0225 20.269 86.6605 20.269C87.2912 20.269 87.7752 20.4157 88.1125 20.709C88.4572 21.0023 88.6735 21.3617 88.7615 21.787L88.0135 22.04C87.9769 21.7173 87.8449 21.457 87.6175 21.259C87.3902 21.0537 87.0639 20.951 86.6385 20.951C86.2205 20.951 85.8979 21.039 85.6705 21.215C85.4505 21.391 85.3405 21.6147 85.3405 21.886C85.3405 22.128 85.4249 22.3187 85.5935 22.458C85.7622 22.5973 85.9749 22.689 86.2315 22.733C86.4882 22.7697 86.7632 22.821 87.0565 22.887C87.3572 22.953 87.6359 23.0263 87.8925 23.107C88.1492 23.1877 88.3619 23.3453 88.5305 23.58C88.6992 23.8147 88.7835 24.1153 88.7835 24.482C88.7835 24.9367 88.5892 25.3253 88.2005 25.648C87.8192 25.9707 87.2692 26.132 86.5505 26.132C85.8319 26.132 85.2855 25.9743 84.9115 25.659C84.5449 25.3363 84.3285 24.922 84.2625 24.416ZM90.7075 19.015C90.5388 19.015 90.4032 18.9673 90.3005 18.872C90.1978 18.7693 90.1465 18.6373 90.1465 18.476C90.1465 18.3147 90.1978 18.1827 90.3005 18.08C90.4032 17.97 90.5388 17.915 90.7075 17.915C90.8688 17.915 91.0008 17.97 91.1035 18.08C91.2135 18.1827 91.2685 18.3147 91.2685 18.476C91.2685 18.6373 91.2135 18.7693 91.1035 18.872C91.0008 18.9673 90.8688 19.015 90.7075 19.015ZM90.3115 26V20.401H91.0925V26H90.3115ZM95.4495 26.132C94.5989 26.132 93.9095 25.846 93.3815 25.274C92.8609 24.6947 92.6005 24.0053 92.6005 23.206C92.6005 22.3993 92.8609 21.71 93.3815 21.138C93.9095 20.5587 94.5989 20.269 95.4495 20.269C96.3075 20.269 96.9969 20.5587 97.5175 21.138C98.0455 21.71 98.3095 22.3993 98.3095 23.206C98.3095 24.0053 98.0455 24.6947 97.5175 25.274C96.9969 25.846 96.3075 26.132 95.4495 26.132ZM93.3925 23.206C93.3925 23.844 93.5832 24.3757 93.9645 24.801C94.3459 25.219 94.8409 25.428 95.4495 25.428C96.0655 25.428 96.5642 25.219 96.9455 24.801C97.3269 24.3757 97.5175 23.844 97.5175 23.206C97.5175 22.5607 97.3269 22.029 96.9455 21.611C96.5642 21.1857 96.0655 20.973 95.4495 20.973C94.8335 20.973 94.3349 21.1857 93.9535 21.611C93.5795 22.029 93.3925 22.5607 93.3925 23.206ZM100.556 20.401V21.259C100.688 21.0097 100.908 20.7823 101.216 20.577C101.524 20.3717 101.92 20.269 102.404 20.269C103.078 20.269 103.599 20.467 103.966 20.863C104.34 21.259 104.527 21.7797 104.527 22.425V26H103.746V22.579C103.746 22.0583 103.621 21.6587 103.372 21.38C103.13 21.094 102.763 20.951 102.272 20.951C101.78 20.951 101.377 21.1013 101.062 21.402C100.746 21.7027 100.589 22.1243 100.589 22.667V26H99.8076V20.401H100.556ZM111.67 26.132C110.82 26.132 110.13 25.846 109.602 25.274C109.082 24.6947 108.821 24.0053 108.821 23.206C108.821 22.3993 109.082 21.71 109.602 21.138C110.13 20.5587 110.82 20.269 111.67 20.269C112.528 20.269 113.218 20.5587 113.738 21.138C114.266 21.71 114.53 22.3993 114.53 23.206C114.53 24.0053 114.266 24.6947 113.738 25.274C113.218 25.846 112.528 26.132 111.67 26.132ZM109.613 23.206C109.613 23.844 109.804 24.3757 110.185 24.801C110.567 25.219 111.062 25.428 111.67 25.428C112.286 25.428 112.785 25.219 113.166 24.801C113.548 24.3757 113.738 23.844 113.738 23.206C113.738 22.5607 113.548 22.029 113.166 21.611C112.785 21.1857 112.286 20.973 111.67 20.973C111.054 20.973 110.556 21.1857 110.174 21.611C109.8 22.029 109.613 22.5607 109.613 23.206ZM116.281 20.401V19.477C116.281 18.905 116.432 18.476 116.732 18.19C117.033 17.8967 117.436 17.75 117.942 17.75L118.316 17.772V18.487C118.243 18.4723 118.14 18.465 118.008 18.465C117.693 18.465 117.455 18.542 117.293 18.696C117.139 18.85 117.062 19.0993 117.062 19.444V20.401H118.327V21.061H117.062V26H116.281V21.061H115.192V20.401H116.281ZM127.406 26L125.899 21.391H125.888L124.359 26H123.545L121.609 20.401H122.445L123.952 25.076L125.492 20.401H126.306L127.824 25.076L129.353 20.401H130.178L128.22 26H127.406ZM131.796 19.015C131.628 19.015 131.492 18.9673 131.389 18.872C131.287 18.7693 131.235 18.6373 131.235 18.476C131.235 18.3147 131.287 18.1827 131.389 18.08C131.492 17.97 131.628 17.915 131.796 17.915C131.958 17.915 132.09 17.97 132.192 18.08C132.302 18.1827 132.357 18.3147 132.357 18.476C132.357 18.6373 132.302 18.7693 132.192 18.872C132.09 18.9673 131.958 19.015 131.796 19.015ZM131.4 26V20.401H132.181V26H131.4ZM136.835 20.357V21.094C136.747 21.0867 136.656 21.083 136.56 21.083C136.062 21.083 135.658 21.2333 135.35 21.534C135.042 21.8273 134.888 22.2563 134.888 22.821V26H134.107V20.401H134.855V21.27C134.987 21.028 135.204 20.8153 135.504 20.632C135.805 20.4413 136.186 20.346 136.648 20.346L136.835 20.357ZM141.842 24.262L142.524 24.559C142.318 25.0357 141.999 25.417 141.567 25.703C141.141 25.989 140.639 26.132 140.06 26.132C139.209 26.132 138.534 25.8497 138.036 25.285C137.544 24.713 137.299 24.0163 137.299 23.195C137.299 22.3883 137.552 21.699 138.058 21.127C138.571 20.555 139.235 20.269 140.049 20.269C140.863 20.269 141.515 20.544 142.007 21.094C142.498 21.6367 142.744 22.315 142.744 23.129L142.733 23.426H138.08C138.116 24.0127 138.314 24.493 138.674 24.867C139.033 25.241 139.499 25.428 140.071 25.428C140.489 25.428 140.852 25.3253 141.16 25.12C141.468 24.9073 141.695 24.6213 141.842 24.262ZM140.049 20.973C139.521 20.973 139.081 21.1453 138.729 21.49C138.377 21.8273 138.168 22.26 138.102 22.788H141.963C141.911 22.238 141.713 21.798 141.369 21.468C141.031 21.138 140.591 20.973 140.049 20.973ZM144.49 20.401V19.477C144.49 18.905 144.641 18.476 144.941 18.19C145.242 17.8967 145.645 17.75 146.151 17.75L146.525 17.772V18.487C146.452 18.4723 146.349 18.465 146.217 18.465C145.902 18.465 145.664 18.542 145.502 18.696C145.348 18.85 145.271 19.0993 145.271 19.444V20.401H146.536V21.061H145.271V26H144.49V21.061H143.401V20.401H144.49ZM150.381 20.357V21.094C150.293 21.0867 150.202 21.083 150.106 21.083C149.608 21.083 149.204 21.2333 148.896 21.534C148.588 21.8273 148.434 22.2563 148.434 22.821V26H147.653V20.401H148.401V21.27C148.533 21.028 148.75 20.8153 149.05 20.632C149.351 20.4413 149.732 20.346 150.194 20.346L150.381 20.357ZM153.493 20.94C152.583 20.94 152.055 21.3103 151.909 22.051L151.172 21.897C151.274 21.3983 151.516 21.0023 151.898 20.709C152.286 20.4157 152.829 20.269 153.526 20.269C154.303 20.269 154.886 20.4597 155.275 20.841C155.663 21.215 155.858 21.7247 155.858 22.37V24.823C155.858 25.1823 156.015 25.362 156.331 25.362L156.529 25.34V25.989C156.455 26.011 156.338 26.022 156.177 26.022C155.913 26.022 155.682 25.9413 155.484 25.78C155.286 25.6187 155.165 25.4023 155.121 25.131C154.908 25.4463 154.607 25.692 154.219 25.868C153.837 26.044 153.419 26.132 152.965 26.132C152.319 26.132 151.832 25.9853 151.502 25.692C151.172 25.3913 151.007 24.9807 151.007 24.46C151.007 23.514 151.711 22.9493 153.119 22.766L155.077 22.513V22.359C155.077 21.413 154.549 20.94 153.493 20.94ZM155.077 23.129L153.218 23.382C152.704 23.448 152.334 23.5727 152.107 23.756C151.887 23.932 151.777 24.1667 151.777 24.46C151.777 24.8267 151.901 25.0907 152.151 25.252C152.4 25.406 152.708 25.483 153.075 25.483C153.698 25.483 154.186 25.3107 154.538 24.966C154.897 24.614 155.077 24.218 155.077 23.778V23.129ZM162.348 22.733V26H161.567V22.579C161.567 22.073 161.45 21.677 161.215 21.391C160.988 21.0977 160.636 20.951 160.159 20.951C159.69 20.951 159.305 21.105 159.004 21.413C158.704 21.721 158.553 22.139 158.553 22.667V26H157.772V20.401H158.52V21.259C158.88 20.599 159.47 20.269 160.291 20.269C161.179 20.269 161.787 20.6283 162.117 21.347C162.293 21.0463 162.55 20.7933 162.887 20.588C163.225 20.3753 163.624 20.269 164.086 20.269C164.739 20.269 165.241 20.4743 165.593 20.885C165.953 21.2883 166.132 21.8017 166.132 22.425V26H165.351V22.579C165.351 22.0803 165.234 21.6843 164.999 21.391C164.772 21.0977 164.424 20.951 163.954 20.951C163.492 20.951 163.107 21.105 162.799 21.413C162.499 21.721 162.348 22.161 162.348 22.733ZM172.124 24.262L172.806 24.559C172.601 25.0357 172.282 25.417 171.849 25.703C171.424 25.989 170.921 26.132 170.342 26.132C169.491 26.132 168.817 25.8497 168.318 25.285C167.827 24.713 167.581 24.0163 167.581 23.195C167.581 22.3883 167.834 21.699 168.34 21.127C168.853 20.555 169.517 20.269 170.331 20.269C171.145 20.269 171.798 20.544 172.289 21.094C172.78 21.6367 173.026 22.315 173.026 23.129L173.015 23.426H168.362C168.399 24.0127 168.597 24.493 168.956 24.867C169.315 25.241 169.781 25.428 170.353 25.428C170.771 25.428 171.134 25.3253 171.442 25.12C171.75 24.9073 171.977 24.6213 172.124 24.262ZM170.331 20.973C169.803 20.973 169.363 21.1453 169.011 21.49C168.659 21.8273 168.45 22.26 168.384 22.788H172.245C172.194 22.238 171.996 21.798 171.651 21.468C171.314 21.138 170.874 20.973 170.331 20.973ZM174.014 24.416L174.795 24.273C174.831 24.6397 174.974 24.9293 175.224 25.142C175.48 25.3473 175.84 25.45 176.302 25.45C176.764 25.45 177.123 25.3657 177.38 25.197C177.644 25.021 177.776 24.79 177.776 24.504C177.776 24.2913 177.71 24.119 177.578 23.987C177.453 23.8477 177.288 23.7487 177.083 23.69C176.885 23.6313 176.665 23.5837 176.423 23.547C176.181 23.503 175.935 23.4517 175.686 23.393C175.444 23.3343 175.22 23.2573 175.014 23.162C174.817 23.0593 174.652 22.9053 174.52 22.7C174.395 22.4873 174.333 22.227 174.333 21.919C174.333 21.4643 174.52 21.0757 174.894 20.753C175.268 20.4303 175.774 20.269 176.412 20.269C177.042 20.269 177.526 20.4157 177.864 20.709C178.208 21.0023 178.425 21.3617 178.513 21.787L177.765 22.04C177.728 21.7173 177.596 21.457 177.369 21.259C177.141 21.0537 176.815 20.951 176.389 20.951C175.972 20.951 175.649 21.039 175.422 21.215C175.202 21.391 175.092 21.6147 175.092 21.886C175.092 22.128 175.176 22.3187 175.345 22.458C175.513 22.5973 175.726 22.689 175.983 22.733C176.239 22.7697 176.514 22.821 176.808 22.887C177.108 22.953 177.387 23.0263 177.644 23.107C177.9 23.1877 178.113 23.3453 178.282 23.58C178.45 23.8147 178.535 24.1153 178.535 24.482C178.535 24.9367 178.34 25.3253 177.952 25.648C177.57 25.9707 177.02 26.132 176.302 26.132C175.583 26.132 175.037 25.9743 174.663 25.659C174.296 25.3363 174.08 24.922 174.014 24.416ZM188.024 26L186.517 21.391H186.506L184.977 26H184.163L182.227 20.401H183.063L184.57 25.076L186.11 20.401H186.924L188.442 25.076L189.971 20.401H190.796L188.838 26H188.024ZM192.415 19.015C192.246 19.015 192.11 18.9673 192.008 18.872C191.905 18.7693 191.854 18.6373 191.854 18.476C191.854 18.3147 191.905 18.1827 192.008 18.08C192.11 17.97 192.246 17.915 192.415 17.915C192.576 17.915 192.708 17.97 192.811 18.08C192.921 18.1827 192.976 18.3147 192.976 18.476C192.976 18.6373 192.921 18.7693 192.811 18.872C192.708 18.9673 192.576 19.015 192.415 19.015ZM192.019 26V20.401H192.8V26H192.019ZM197.003 25.263V25.967C196.871 26.0037 196.673 26.022 196.409 26.022C195.441 26.022 194.957 25.5123 194.957 24.493V21.061H193.89V20.401H194.957V18.806H195.738V20.401H197.025V21.061H195.738V24.438C195.738 25.0247 195.994 25.318 196.508 25.318L197.003 25.263ZM199.062 17.75V21.182C199.194 20.9547 199.414 20.7457 199.722 20.555C200.03 20.3643 200.415 20.269 200.877 20.269C201.552 20.269 202.073 20.467 202.439 20.863C202.813 21.259 203 21.7797 203 22.425V26H202.219V22.579C202.219 22.0583 202.095 21.6587 201.845 21.38C201.603 21.094 201.237 20.951 200.745 20.951C200.254 20.951 199.851 21.105 199.535 21.413C199.22 21.7137 199.062 22.139 199.062 22.689V26H198.281V17.75H199.062ZM207.207 24.416L207.988 24.273C208.025 24.6397 208.168 24.9293 208.417 25.142C208.674 25.3473 209.033 25.45 209.495 25.45C209.957 25.45 210.316 25.3657 210.573 25.197C210.837 25.021 210.969 24.79 210.969 24.504C210.969 24.2913 210.903 24.119 210.771 23.987C210.646 23.8477 210.481 23.7487 210.276 23.69C210.078 23.6313 209.858 23.5837 209.616 23.547C209.374 23.503 209.128 23.4517 208.879 23.393C208.637 23.3343 208.413 23.2573 208.208 23.162C208.01 23.0593 207.845 22.9053 207.713 22.7C207.588 22.4873 207.526 22.227 207.526 21.919C207.526 21.4643 207.713 21.0757 208.087 20.753C208.461 20.4303 208.967 20.269 209.605 20.269C210.236 20.269 210.72 20.4157 211.057 20.709C211.402 21.0023 211.618 21.3617 211.706 21.787L210.958 22.04C210.921 21.7173 210.789 21.457 210.562 21.259C210.335 21.0537 210.008 20.951 209.583 20.951C209.165 20.951 208.842 21.039 208.615 21.215C208.395 21.391 208.285 21.6147 208.285 21.886C208.285 22.128 208.369 22.3187 208.538 22.458C208.707 22.5973 208.919 22.689 209.176 22.733C209.433 22.7697 209.708 22.821 210.001 22.887C210.302 22.953 210.58 23.0263 210.837 23.107C211.094 23.1877 211.306 23.3453 211.475 23.58C211.644 23.8147 211.728 24.1153 211.728 24.482C211.728 24.9367 211.534 25.3253 211.145 25.648C210.764 25.9707 210.214 26.132 209.495 26.132C208.776 26.132 208.23 25.9743 207.856 25.659C207.489 25.3363 207.273 24.922 207.207 24.416ZM215.533 25.263V25.967C215.401 26.0037 215.203 26.022 214.939 26.022C213.971 26.022 213.487 25.5123 213.487 24.493V21.061H212.42V20.401H213.487V18.806H214.268V20.401H215.555V21.061H214.268V24.438C214.268 25.0247 214.524 25.318 215.038 25.318L215.533 25.263ZM216.756 27.694C217.064 27.694 217.325 27.6133 217.537 27.452C217.757 27.2907 217.955 27.0047 218.131 26.594L218.373 26L216.03 20.401H216.877L218.78 25.098L220.705 20.401H221.53L218.824 26.825C218.377 27.881 217.699 28.409 216.789 28.409L216.569 28.398V27.683C216.628 27.6903 216.69 27.694 216.756 27.694ZM223.447 26H222.666V17.75H223.447V26ZM229.498 24.262L230.18 24.559C229.975 25.0357 229.656 25.417 229.223 25.703C228.798 25.989 228.295 26.132 227.716 26.132C226.865 26.132 226.191 25.8497 225.692 25.285C225.201 24.713 224.955 24.0163 224.955 23.195C224.955 22.3883 225.208 21.699 225.714 21.127C226.227 20.555 226.891 20.269 227.705 20.269C228.519 20.269 229.172 20.544 229.663 21.094C230.154 21.6367 230.4 22.315 230.4 23.129L230.389 23.426H225.736C225.773 24.0127 225.971 24.493 226.33 24.867C226.689 25.241 227.155 25.428 227.727 25.428C228.145 25.428 228.508 25.3253 228.816 25.12C229.124 24.9073 229.351 24.6213 229.498 24.262ZM227.705 20.973C227.177 20.973 226.737 21.1453 226.385 21.49C226.033 21.8273 225.824 22.26 225.758 22.788H229.619C229.568 22.238 229.37 21.798 229.025 21.468C228.688 21.138 228.248 20.973 227.705 20.973ZM231.388 24.416L232.169 24.273C232.205 24.6397 232.348 24.9293 232.598 25.142C232.854 25.3473 233.214 25.45 233.676 25.45C234.138 25.45 234.497 25.3657 234.754 25.197C235.018 25.021 235.15 24.79 235.15 24.504C235.15 24.2913 235.084 24.119 234.952 23.987C234.827 23.8477 234.662 23.7487 234.457 23.69C234.259 23.6313 234.039 23.5837 233.797 23.547C233.555 23.503 233.309 23.4517 233.06 23.393C232.818 23.3343 232.594 23.2573 232.389 23.162C232.191 23.0593 232.026 22.9053 231.894 22.7C231.769 22.4873 231.707 22.227 231.707 21.919C231.707 21.4643 231.894 21.0757 232.268 20.753C232.642 20.4303 233.148 20.269 233.786 20.269C234.416 20.269 234.9 20.4157 235.238 20.709C235.582 21.0023 235.799 21.3617 235.887 21.787L235.139 22.04C235.102 21.7173 234.97 21.457 234.743 21.259C234.515 21.0537 234.189 20.951 233.764 20.951C233.346 20.951 233.023 21.039 232.796 21.215C232.576 21.391 232.466 21.6147 232.466 21.886C232.466 22.128 232.55 22.3187 232.719 22.458C232.887 22.5973 233.1 22.689 233.357 22.733C233.613 22.7697 233.888 22.821 234.182 22.887C234.482 22.953 234.761 23.0263 235.018 23.107C235.274 23.1877 235.487 23.3453 235.656 23.58C235.824 23.8147 235.909 24.1153 235.909 24.482C235.909 24.9367 235.714 25.3253 235.326 25.648C234.944 25.9707 234.394 26.132 233.676 26.132C232.957 26.132 232.411 25.9743 232.037 25.659C231.67 25.3363 231.454 24.922 231.388 24.416ZM237.348 24.966H238.272L237.469 27.199H236.776L237.348 24.966ZM243.064 19.015C242.895 19.015 242.76 18.9673 242.657 18.872C242.554 18.7693 242.503 18.6373 242.503 18.476C242.503 18.3147 242.554 18.1827 242.657 18.08C242.76 17.97 242.895 17.915 243.064 17.915C243.225 17.915 243.357 17.97 243.46 18.08C243.57 18.1827 243.625 18.3147 243.625 18.476C243.625 18.6373 243.57 18.7693 243.46 18.872C243.357 18.9673 243.225 19.015 243.064 19.015ZM242.668 26V20.401H243.449V26H242.668ZM247.718 25.428C248.158 25.428 248.532 25.3143 248.84 25.087C249.148 24.8597 249.368 24.548 249.5 24.152L250.226 24.438C250.043 24.9367 249.735 25.3437 249.302 25.659C248.869 25.9743 248.341 26.132 247.718 26.132C246.897 26.132 246.229 25.846 245.716 25.274C245.21 24.6947 244.957 24.0053 244.957 23.206C244.957 22.4067 245.21 21.7173 245.716 21.138C246.229 20.5587 246.897 20.269 247.718 20.269C248.341 20.269 248.869 20.4267 249.302 20.742C249.735 21.0573 250.043 21.4643 250.226 21.963L249.5 22.249C249.368 21.853 249.148 21.5413 248.84 21.314C248.532 21.0867 248.158 20.973 247.718 20.973C247.131 20.973 246.655 21.182 246.288 21.6C245.929 22.018 245.749 22.5533 245.749 23.206C245.749 23.8513 245.929 24.383 246.288 24.801C246.655 25.219 247.131 25.428 247.718 25.428ZM253.993 26.132C253.143 26.132 252.453 25.846 251.925 25.274C251.405 24.6947 251.144 24.0053 251.144 23.206C251.144 22.3993 251.405 21.71 251.925 21.138C252.453 20.5587 253.143 20.269 253.993 20.269C254.851 20.269 255.541 20.5587 256.061 21.138C256.589 21.71 256.853 22.3993 256.853 23.206C256.853 24.0053 256.589 24.6947 256.061 25.274C255.541 25.846 254.851 26.132 253.993 26.132ZM251.936 23.206C251.936 23.844 252.127 24.3757 252.508 24.801C252.89 25.219 253.385 25.428 253.993 25.428C254.609 25.428 255.108 25.219 255.489 24.801C255.871 24.3757 256.061 23.844 256.061 23.206C256.061 22.5607 255.871 22.029 255.489 21.611C255.108 21.1857 254.609 20.973 253.993 20.973C253.377 20.973 252.879 21.1857 252.497 21.611C252.123 22.029 251.936 22.5607 251.936 23.206ZM259.1 20.401V21.259C259.232 21.0097 259.452 20.7823 259.76 20.577C260.068 20.3717 260.464 20.269 260.948 20.269C261.622 20.269 262.143 20.467 262.51 20.863C262.884 21.259 263.071 21.7797 263.071 22.425V26H262.29V22.579C262.29 22.0583 262.165 21.6587 261.916 21.38C261.674 21.094 261.307 20.951 260.816 20.951C260.324 20.951 259.921 21.1013 259.606 21.402C259.29 21.7027 259.133 22.1243 259.133 22.667V26H258.352V20.401H259.1ZM264.42 24.416L265.201 24.273C265.237 24.6397 265.38 24.9293 265.63 25.142C265.886 25.3473 266.246 25.45 266.708 25.45C267.17 25.45 267.529 25.3657 267.786 25.197C268.05 25.021 268.182 24.79 268.182 24.504C268.182 24.2913 268.116 24.119 267.984 23.987C267.859 23.8477 267.694 23.7487 267.489 23.69C267.291 23.6313 267.071 23.5837 266.829 23.547C266.587 23.503 266.341 23.4517 266.092 23.393C265.85 23.3343 265.626 23.2573 265.421 23.162C265.223 23.0593 265.058 22.9053 264.926 22.7C264.801 22.4873 264.739 22.227 264.739 21.919C264.739 21.4643 264.926 21.0757 265.3 20.753C265.674 20.4303 266.18 20.269 266.818 20.269C267.448 20.269 267.932 20.4157 268.27 20.709C268.614 21.0023 268.831 21.3617 268.919 21.787L268.171 22.04C268.134 21.7173 268.002 21.457 267.775 21.259C267.547 21.0537 267.221 20.951 266.796 20.951C266.378 20.951 266.055 21.039 265.828 21.215C265.608 21.391 265.498 21.6147 265.498 21.886C265.498 22.128 265.582 22.3187 265.751 22.458C265.919 22.5973 266.132 22.689 266.389 22.733C266.645 22.7697 266.92 22.821 267.214 22.887C267.514 22.953 267.793 23.0263 268.05 23.107C268.306 23.1877 268.519 23.3453 268.688 23.58C268.856 23.8147 268.941 24.1153 268.941 24.482C268.941 24.9367 268.746 25.3253 268.358 25.648C267.976 25.9707 267.426 26.132 266.708 26.132C265.989 26.132 265.443 25.9743 265.069 25.659C264.702 25.3363 264.486 24.922 264.42 24.416ZM275.427 20.94C274.518 20.94 273.99 21.3103 273.843 22.051L273.106 21.897C273.209 21.3983 273.451 21.0023 273.832 20.709C274.221 20.4157 274.763 20.269 275.46 20.269C276.237 20.269 276.82 20.4597 277.209 20.841C277.598 21.215 277.792 21.7247 277.792 22.37V24.823C277.792 25.1823 277.95 25.362 278.265 25.362L278.463 25.34V25.989C278.39 26.011 278.272 26.022 278.111 26.022C277.847 26.022 277.616 25.9413 277.418 25.78C277.22 25.6187 277.099 25.4023 277.055 25.131C276.842 25.4463 276.542 25.692 276.153 25.868C275.772 26.044 275.354 26.132 274.899 26.132C274.254 26.132 273.766 25.9853 273.436 25.692C273.106 25.3913 272.941 24.9807 272.941 24.46C272.941 23.514 273.645 22.9493 275.053 22.766L277.011 22.513V22.359C277.011 21.413 276.483 20.94 275.427 20.94ZM277.011 23.129L275.152 23.382C274.639 23.448 274.268 23.5727 274.041 23.756C273.821 23.932 273.711 24.1667 273.711 24.46C273.711 24.8267 273.836 25.0907 274.085 25.252C274.334 25.406 274.642 25.483 275.009 25.483C275.632 25.483 276.12 25.3107 276.472 24.966C276.831 24.614 277.011 24.218 277.011 23.778V23.129ZM280.455 20.401V21.259C280.587 21.0097 280.807 20.7823 281.115 20.577C281.423 20.3717 281.819 20.269 282.303 20.269C282.978 20.269 283.498 20.467 283.865 20.863C284.239 21.259 284.426 21.7797 284.426 22.425V26H283.645V22.579C283.645 22.0583 283.52 21.6587 283.271 21.38C283.029 21.094 282.662 20.951 282.171 20.951C281.68 20.951 281.276 21.1013 280.961 21.402C280.646 21.7027 280.488 22.1243 280.488 22.667V26H279.707V20.401H280.455ZM290.593 21.413V17.75H291.374V26H290.626V24.966C290.208 25.7433 289.501 26.132 288.503 26.132C287.682 26.132 287.037 25.8497 286.567 25.285C286.098 24.713 285.863 24.02 285.863 23.206C285.863 22.3847 286.098 21.6917 286.567 21.127C287.037 20.555 287.682 20.269 288.503 20.269C289.471 20.269 290.168 20.6503 290.593 21.413ZM290.626 23.206C290.626 22.5607 290.45 22.029 290.098 21.611C289.746 21.1857 289.266 20.973 288.657 20.973C288.049 20.973 287.561 21.1857 287.194 21.611C286.835 22.0363 286.655 22.568 286.655 23.206C286.655 23.8367 286.835 24.3647 287.194 24.79C287.561 25.2153 288.049 25.428 288.657 25.428C289.266 25.428 289.746 25.2153 290.098 24.79C290.45 24.3647 290.626 23.8367 290.626 23.206ZM24.738 41.413C25.1633 40.6503 25.86 40.269 26.828 40.269C27.6567 40.269 28.3057 40.555 28.775 41.127C29.2443 41.6917 29.479 42.3847 29.479 43.206C29.479 44.02 29.2443 44.713 28.775 45.285C28.3057 45.8497 27.6567 46.132 26.828 46.132C25.8453 46.132 25.1377 45.7433 24.705 44.966V46H23.957V37.75H24.738V41.413ZM24.716 43.206C24.716 43.8367 24.892 44.3647 25.244 44.79C25.596 45.2153 26.0763 45.428 26.685 45.428C27.2937 45.428 27.7777 45.2153 28.137 44.79C28.5037 44.3647 28.687 43.8367 28.687 43.206C28.687 42.568 28.5037 42.0363 28.137 41.611C27.7777 41.1857 27.2937 40.973 26.685 40.973C26.0763 40.973 25.596 41.1857 25.244 41.611C24.892 42.029 24.716 42.5607 24.716 43.206ZM34.7886 43.712V40.401H35.5696V46H34.8216V45.186C34.697 45.4207 34.4806 45.637 34.1726 45.835C33.872 46.033 33.4833 46.132 33.0066 46.132C32.332 46.132 31.815 45.9377 31.4556 45.549C31.0963 45.153 30.9166 44.6323 30.9166 43.987V40.401H31.6976V43.822C31.6976 44.9073 32.178 45.45 33.1386 45.45C33.6153 45.45 34.0076 45.3033 34.3156 45.01C34.631 44.7093 34.7886 44.2767 34.7886 43.712ZM39.7692 45.263V45.967C39.6372 46.0037 39.4392 46.022 39.1752 46.022C38.2072 46.022 37.7232 45.5123 37.7232 44.493V41.061H36.6562V40.401H37.7232V38.806H38.5042V40.401H39.7912V41.061H38.5042V44.438C38.5042 45.0247 38.7608 45.318 39.2742 45.318L39.7692 45.263ZM43.2067 45.263V45.967C43.0747 46.0037 42.8767 46.022 42.6127 46.022C41.6447 46.022 41.1607 45.5123 41.1607 44.493V41.061H40.0937V40.401H41.1607V38.806H41.9417V40.401H43.2287V41.061H41.9417V44.438C41.9417 45.0247 42.1983 45.318 42.7117 45.318L43.2067 45.263ZM46.7982 46.132C45.9475 46.132 45.2582 45.846 44.7302 45.274C44.2095 44.6947 43.9492 44.0053 43.9492 43.206C43.9492 42.3993 44.2095 41.71 44.7302 41.138C45.2582 40.5587 45.9475 40.269 46.7982 40.269C47.6562 40.269 48.3455 40.5587 48.8662 41.138C49.3942 41.71 49.6582 42.3993 49.6582 43.206C49.6582 44.0053 49.3942 44.6947 48.8662 45.274C48.3455 45.846 47.6562 46.132 46.7982 46.132ZM44.7412 43.206C44.7412 43.844 44.9318 44.3757 45.3132 44.801C45.6945 45.219 46.1895 45.428 46.7982 45.428C47.4142 45.428 47.9128 45.219 48.2942 44.801C48.6755 44.3757 48.8662 43.844 48.8662 43.206C48.8662 42.5607 48.6755 42.029 48.2942 41.611C47.9128 41.1857 47.4142 40.973 46.7982 40.973C46.1822 40.973 45.6835 41.1857 45.3022 41.611C44.9282 42.029 44.7412 42.5607 44.7412 43.206ZM51.9042 40.401V41.259C52.0362 41.0097 52.2562 40.7823 52.5642 40.577C52.8722 40.3717 53.2682 40.269 53.7522 40.269C54.4269 40.269 54.9476 40.467 55.3142 40.863C55.6882 41.259 55.8752 41.7797 55.8752 42.425V46H55.0942V42.579C55.0942 42.0583 54.9696 41.6587 54.7202 41.38C54.4782 41.094 54.1116 40.951 53.6202 40.951C53.1289 40.951 52.7256 41.1013 52.4102 41.402C52.0949 41.7027 51.9372 42.1243 51.9372 42.667V46H51.1562V40.401H51.9042ZM57.2244 44.416L58.0054 44.273C58.0421 44.6397 58.1851 44.9293 58.4344 45.142C58.6911 45.3473 59.0504 45.45 59.5124 45.45C59.9744 45.45 60.3338 45.3657 60.5904 45.197C60.8544 45.021 60.9864 44.79 60.9864 44.504C60.9864 44.2913 60.9204 44.119 60.7884 43.987C60.6638 43.8477 60.4988 43.7487 60.2934 43.69C60.0954 43.6313 59.8754 43.5837 59.6334 43.547C59.3914 43.503 59.1458 43.4517 58.8964 43.393C58.6544 43.3343 58.4308 43.2573 58.2254 43.162C58.0274 43.0593 57.8624 42.9053 57.7304 42.7C57.6058 42.4873 57.5434 42.227 57.5434 41.919C57.5434 41.4643 57.7304 41.0757 58.1044 40.753C58.4784 40.4303 58.9844 40.269 59.6224 40.269C60.2531 40.269 60.7371 40.4157 61.0744 40.709C61.4191 41.0023 61.6354 41.3617 61.7234 41.787L60.9754 42.04C60.9388 41.7173 60.8068 41.457 60.5794 41.259C60.3521 41.0537 60.0258 40.951 59.6004 40.951C59.1824 40.951 58.8598 41.039 58.6324 41.215C58.4124 41.391 58.3024 41.6147 58.3024 41.886C58.3024 42.128 58.3868 42.3187 58.5554 42.458C58.7241 42.5973 58.9368 42.689 59.1934 42.733C59.4501 42.7697 59.7251 42.821 60.0184 42.887C60.3191 42.953 60.5978 43.0263 60.8544 43.107C61.1111 43.1877 61.3238 43.3453 61.4924 43.58C61.6611 43.8147 61.7454 44.1153 61.7454 44.482C61.7454 44.9367 61.5511 45.3253 61.1624 45.648C60.7811 45.9707 60.2311 46.132 59.5124 46.132C58.7938 46.132 58.2474 45.9743 57.8734 45.659C57.5068 45.3363 57.2904 44.922 57.2244 44.416ZM65.6248 44.416L66.4058 44.273C66.4425 44.6397 66.5855 44.9293 66.8348 45.142C67.0915 45.3473 67.4508 45.45 67.9128 45.45C68.3748 45.45 68.7342 45.3657 68.9908 45.197C69.2548 45.021 69.3868 44.79 69.3868 44.504C69.3868 44.2913 69.3208 44.119 69.1888 43.987C69.0642 43.8477 68.8992 43.7487 68.6938 43.69C68.4958 43.6313 68.2758 43.5837 68.0338 43.547C67.7918 43.503 67.5462 43.4517 67.2968 43.393C67.0548 43.3343 66.8312 43.2573 66.6258 43.162C66.4278 43.0593 66.2628 42.9053 66.1308 42.7C66.0062 42.4873 65.9438 42.227 65.9438 41.919C65.9438 41.4643 66.1308 41.0757 66.5048 40.753C66.8788 40.4303 67.3848 40.269 68.0228 40.269C68.6535 40.269 69.1375 40.4157 69.4748 40.709C69.8195 41.0023 70.0358 41.3617 70.1238 41.787L69.3758 42.04C69.3392 41.7173 69.2072 41.457 68.9798 41.259C68.7525 41.0537 68.4262 40.951 68.0008 40.951C67.5828 40.951 67.2602 41.039 67.0328 41.215C66.8128 41.391 66.7028 41.6147 66.7028 41.886C66.7028 42.128 66.7872 42.3187 66.9558 42.458C67.1245 42.5973 67.3372 42.689 67.5938 42.733C67.8505 42.7697 68.1255 42.821 68.4188 42.887C68.7195 42.953 68.9982 43.0263 69.2548 43.107C69.5115 43.1877 69.7242 43.3453 69.8928 43.58C70.0615 43.8147 70.1458 44.1153 70.1458 44.482C70.1458 44.9367 69.9515 45.3253 69.5628 45.648C69.1815 45.9707 68.6315 46.132 67.9128 46.132C67.1942 46.132 66.6478 45.9743 66.2738 45.659C65.9072 45.3363 65.6908 44.922 65.6248 44.416ZM75.7988 44.262L76.4808 44.559C76.2755 45.0357 75.9565 45.417 75.5238 45.703C75.0985 45.989 74.5961 46.132 74.0168 46.132C73.1661 46.132 72.4915 45.8497 71.9928 45.285C71.5015 44.713 71.2558 44.0163 71.2558 43.195C71.2558 42.3883 71.5088 41.699 72.0148 41.127C72.5281 40.555 73.1918 40.269 74.0058 40.269C74.8198 40.269 75.4725 40.544 75.9638 41.094C76.4551 41.6367 76.7008 42.315 76.7008 43.129L76.6898 43.426H72.0368C72.0735 44.0127 72.2715 44.493 72.6308 44.867C72.9901 45.241 73.4558 45.428 74.0278 45.428C74.4458 45.428 74.8088 45.3253 75.1168 45.12C75.4248 44.9073 75.6521 44.6213 75.7988 44.262ZM74.0058 40.973C73.4778 40.973 73.0378 41.1453 72.6858 41.49C72.3338 41.8273 72.1248 42.26 72.0588 42.788H75.9198C75.8685 42.238 75.6705 41.798 75.3258 41.468C74.9885 41.138 74.5485 40.973 74.0058 40.973ZM80.4713 45.263V45.967C80.3393 46.0037 80.1413 46.022 79.8773 46.022C78.9093 46.022 78.4253 45.5123 78.4253 44.493V41.061H77.3583V40.401H78.4253V38.806H79.2063V40.401H80.4933V41.061H79.2063V44.438C79.2063 45.0247 79.463 45.318 79.9763 45.318L80.4713 45.263ZM81.662 44.966H82.586L81.783 47.199H81.09L81.662 44.966ZM91.1064 44.262L91.7884 44.559C91.5831 45.0357 91.2641 45.417 90.8314 45.703C90.4061 45.989 89.9037 46.132 89.3244 46.132C88.4737 46.132 87.7991 45.8497 87.3004 45.285C86.8091 44.713 86.5634 44.0163 86.5634 43.195C86.5634 42.3883 86.8164 41.699 87.3224 41.127C87.8357 40.555 88.4994 40.269 89.3134 40.269C90.1274 40.269 90.7801 40.544 91.2714 41.094C91.7627 41.6367 92.0084 42.315 92.0084 43.129L91.9974 43.426H87.3444C87.3811 44.0127 87.5791 44.493 87.9384 44.867C88.2977 45.241 88.7634 45.428 89.3354 45.428C89.7534 45.428 90.1164 45.3253 90.4244 45.12C90.7324 44.9073 90.9597 44.6213 91.1064 44.262ZM89.3134 40.973C88.7854 40.973 88.3454 41.1453 87.9934 41.49C87.6414 41.8273 87.4324 42.26 87.3664 42.788H91.2274C91.1761 42.238 90.9781 41.798 90.6334 41.468C90.2961 41.138 89.8561 40.973 89.3134 40.973ZM95.7789 45.263V45.967C95.6469 46.0037 95.4489 46.022 95.1849 46.022C94.2169 46.022 93.7329 45.5123 93.7329 44.493V41.061H92.6659V40.401H93.7329V38.806H94.5139V40.401H95.8009V41.061H94.5139V44.438C94.5139 45.0247 94.7706 45.318 95.2839 45.318L95.7789 45.263ZM99.2824 45.428C99.7224 45.428 100.096 45.3143 100.404 45.087C100.712 44.8597 100.932 44.548 101.064 44.152L101.79 44.438C101.607 44.9367 101.299 45.3437 100.866 45.659C100.434 45.9743 99.9058 46.132 99.2824 46.132C98.4611 46.132 97.7938 45.846 97.2804 45.274C96.7744 44.6947 96.5214 44.0053 96.5214 43.206C96.5214 42.4067 96.7744 41.7173 97.2804 41.138C97.7938 40.5587 98.4611 40.269 99.2824 40.269C99.9058 40.269 100.434 40.4267 100.866 40.742C101.299 41.0573 101.607 41.4643 101.79 41.963L101.064 42.249C100.932 41.853 100.712 41.5413 100.404 41.314C100.096 41.0867 99.7224 40.973 99.2824 40.973C98.6958 40.973 98.2191 41.182 97.8524 41.6C97.4931 42.018 97.3134 42.5533 97.3134 43.206C97.3134 43.8513 97.4931 44.383 97.8524 44.801C98.2191 45.219 98.6958 45.428 99.2824 45.428ZM103.905 45.923C103.795 46.033 103.652 46.088 103.476 46.088C103.3 46.088 103.153 46.033 103.036 45.923C102.926 45.813 102.871 45.67 102.871 45.494C102.871 45.3253 102.926 45.186 103.036 45.076C103.153 44.9587 103.3 44.9 103.476 44.9C103.645 44.9 103.788 44.9587 103.905 45.076C104.022 45.186 104.081 45.3253 104.081 45.494C104.081 45.67 104.022 45.813 103.905 45.923Z" fill="#1B1A1A"/>
</svg>
